# xmcd
#
# Track frame offsets: 
#        150
#        15592
#        28611
#        48521
#        70399
#        87213
#        103089
#        114262
#        126299
#        146408
#
# Disc length: 2240 seconds
#
# Revision: 2
# Processed by: cddbd v1.5.2PL0 Copyright (c) Steve Scherf et al.
# Submitted via: ExactAudioCopy v1.0b3
#
DISCID=8208be0a
DTITLE=Various Artist - Sunday Morning Country
DYEAR=1996
DGENRE=Gospel
TTITLE0=The Gatlin Brothers - He
TTITLE1=The Gatlin Brothers - What Child Is This
TTITLE2=Crystal Gayle - I Saw the Light Medley
TTITLE3=Crystal Gayle - I Believe Medley
TTITLE4=Roy Clark - Why Me Lord
TTITLE5=Roy Clark - Peace In The Valley
TTITLE6=Moe Bandy - Will The Circle Be Unbroken
TTITLE7=Moe Bandy - Just A Closer Walk With Thee
TTITLE8=Janie Fricke - Tears In Heaven
TTITLE9=Janie Fricke - Amazing Grace
EXTD=
EXTT0=
EXTT1=
EXTT2=
EXTT3=
EXTT4=
EXTT5=
EXTT6=
EXTT7=
EXTT8=
EXTT9=
PLAYORDER=
